<svg width="601" height="68" viewBox="0 0 601 68" fill="none" xmlns="http://www.w3.org/2000/svg">
<path d="M35.912 32.728C39.496 33.368 42.536 35.256 45.032 38.392C47.528 41.528 48.776 45.08 48.776 49.048C48.776 52.44 47.88 55.512 46.088 58.264C44.36 60.952 41.832 63.096 38.504 64.696C35.176 66.232 31.304 67 26.888 67H0.2V0.279995H25.64C30.184 0.279995 34.088 1.048 37.352 2.584C40.616 4.12 43.08 6.2 44.744 8.824C46.408 11.384 47.24 14.264 47.24 17.464C47.24 21.304 46.216 24.504 44.168 27.064C42.12 29.624 39.368 31.512 35.912 32.728ZM11.144 28.312H24.68C28.264 28.312 31.048 27.512 33.032 25.912C35.08 24.248 36.104 21.88 36.104 18.808C36.104 15.8 35.08 13.464 33.032 11.8C31.048 10.072 28.264 9.20799 24.68 9.20799H11.144V28.312ZM25.928 58.072C29.64 58.072 32.552 57.176 34.664 55.384C36.776 53.592 37.832 51.096 37.832 47.896C37.832 44.632 36.712 42.04 34.472 40.12C32.232 38.2 29.256 37.24 25.544 37.24H11.144V58.072H25.928ZM88.8927 0.279995V67H77.9487V0.279995H88.8927ZM190.813 0.279995V67H179.869V21.304L159.517 67H151.933L131.485 21.304V67H120.541V0.279995H132.349L155.773 52.6L179.101 0.279995H190.813ZM258.189 32.728C261.773 33.368 264.813 35.256 267.31 38.392C269.806 41.528 271.053 45.08 271.053 49.048C271.053 52.44 270.157 55.512 268.365 58.264C266.637 60.952 264.109 63.096 260.781 64.696C257.453 66.232 253.581 67 249.165 67H222.477V0.279995H247.917C252.461 0.279995 256.365 1.048 259.629 2.584C262.893 4.12 265.357 6.2 267.021 8.824C268.685 11.384 269.517 14.264 269.517 17.464C269.517 21.304 268.493 24.504 266.446 27.064C264.398 29.624 261.646 31.512 258.189 32.728ZM233.421 28.312H246.957C250.541 28.312 253.325 27.512 255.309 25.912C257.357 24.248 258.381 21.88 258.381 18.808C258.381 15.8 257.357 13.464 255.309 11.8C253.325 10.072 250.541 9.20799 246.957 9.20799H233.421V28.312ZM248.205 58.072C251.917 58.072 254.829 57.176 256.941 55.384C259.053 53.592 260.109 51.096 260.109 47.896C260.109 44.632 258.989 42.04 256.749 40.12C254.509 38.2 251.533 37.24 247.821 37.24H233.421V58.072H248.205ZM311.17 9.112V28.696H334.21V37.624H311.17V58.072H337.09V67H300.226V0.183996H337.09V9.112H311.17ZM378.794 58.168H401.354V67H367.85V0.279995H378.794V58.168ZM506.772 67L480.948 37.144V67H470.004V0.279995H480.948V30.712L506.868 0.279995H520.596L491.604 33.688L521.076 67H506.772ZM558.882 0.279995V42.808C558.882 47.864 560.194 51.672 562.818 54.232C565.506 56.792 569.218 58.072 573.954 58.072C578.754 58.072 582.466 56.792 585.09 54.232C587.778 51.672 589.122 47.864 589.122 42.808V0.279995H600.066V42.616C600.066 48.056 598.882 52.664 596.514 56.44C594.146 60.216 590.978 63.032 587.01 64.888C583.042 66.744 578.658 67.672 573.858 67.672C569.058 67.672 564.674 66.744 560.706 64.888C556.802 63.032 553.698 60.216 551.394 56.44C549.09 52.664 547.938 48.056 547.938 42.616V0.279995H558.882Z" fill="white"/>
</svg>
