<svg width="130" height="67" viewBox="0 0 130 67" fill="none" xmlns="http://www.w3.org/2000/svg">
<path d="M35.912 32.728C39.496 33.368 42.536 35.256 45.032 38.392C47.528 41.528 48.776 45.08 48.776 49.048C48.776 52.44 47.88 55.512 46.088 58.264C44.36 60.952 41.832 63.096 38.504 64.696C35.176 66.232 31.304 67 26.888 67H0.2V0.279995H25.64C30.184 0.279995 34.088 1.048 37.352 2.584C40.616 4.12 43.08 6.2 44.744 8.824C46.408 11.384 47.24 14.264 47.24 17.464C47.24 21.304 46.216 24.504 44.168 27.064C42.12 29.624 39.368 31.512 35.912 32.728ZM11.144 28.312H24.68C28.264 28.312 31.048 27.512 33.032 25.912C35.08 24.248 36.104 21.88 36.104 18.808C36.104 15.8 35.08 13.464 33.032 11.8C31.048 10.072 28.264 9.20799 24.68 9.20799H11.144V28.312ZM25.928 58.072C29.64 58.072 32.552 57.176 34.664 55.384C36.776 53.592 37.832 51.096 37.832 47.896C37.832 44.632 36.712 42.04 34.472 40.12C32.232 38.2 29.256 37.24 25.544 37.24H11.144V58.072H25.928ZM114.717 67L88.8927 37.144V67H77.9487V0.279995H88.8927V30.712L114.813 0.279995H128.541L99.5487 33.688L129.021 67H114.717Z" fill="white"/>
</svg>
